<?xml version="1.0" encoding="UTF-8"?>
<svg id="Layer_1" xmlns="http://www.w3.org/2000/svg" version="1.1" viewBox="0 0 672 551.5">
  <!-- Generator: Adobe Illustrator 30.3.0, SVG Export Plug-In . SVG Version: 2.1.3 Build 182)  -->
  <defs>
    <style>
      .st0 {
        fill: #f03223;
      }
    </style>
  </defs>
  <path class="st0" d="M251,194.6l59-61.2h-59v61.2Z"/>
  <path class="st0" d="M225.6,345.6c12.5-7.2,22.4-16.8,29.7-28.9,7.2-12.1,10.9-25.7,10.9-40.8s-2.1-22.3-6.3-32.2c-4.2-9.9-10-18.6-17.4-26-5.2-5.2-11-9.7-17.4-13.3,1.6-2.3,2.9-4.8,4-7.3,1.2-2.7,2.1-5.5,2.7-8.4.7-2.8,1-5.7,1-8.7,0-6.3-1.3-12.3-3.9-17.8-2.6-5.6-6.3-10.5-10.9-14.8-4.6-4.3-9.9-7.7-15.9-10.3-6-2.5-12.3-3.8-19.1-3.8s-12.8,1.3-18.8,3.8c-6,2.5-11.3,5.9-15.9,10.3-4.6,4.3-8.3,9.2-10.9,14.8-2.6,5.6-3.9,11.5-3.9,17.8v176.3h50.2c15.6,0,29.6-3.6,42.1-10.7h0,0ZM170.9,256c0-34.1,56.2-31.5,56.2,17.2s-56.2,48.4-56.2,48.4v-65.6ZM198.3,180.1c0,8.2-6.7,14.9-14.9,14.9s-14.9-6.7-14.9-14.9,6.7-14.9,14.9-14.9,14.9,6.7,14.9,14.9Z"/>
  <path class="st0" d="M366.4,356.3v-121.8c0-6.4,4.2-9.2,8.2-9.2s8.7,3.3,8.7,9.2l.6,121.8h37.3v-120.7c0-25.2-22.9-45.2-46.8-45.2s-24.6,6.9-27,8.8c-1.8-1.4-11.1-8.8-26.5-8.8-36.5,0-46.8,34.6-46.8,45.2v120.7h37.6v-121.8c0-6.4,4.4-9.2,8.4-9.2s8.5,3.3,8.5,9.2l.3,121.8h37.5Z"/>
  <path class="st0" d="M383.5,377.9h-250.2v35.7h250.2v-35.7Z"/>
  <path class="st0" d="M538.7,133.3h-222.9v35.8h222.9v-35.8Z"/>
  <path class="st0" d="M500.8,307.5l37.8-113h-41.5l-16.8,58.6-23.8-58.6h-39.7s53.3,135.9,58.3,149c10,26.3-3.7,43.4-29.4,42.4-9.3-.4-17.8-3-24.8-8.1h-37.5c12.1,22,41,40.4,67.9,40.4,50.8,0,73.7-40.4,62.1-73.5-6.5-18.8-11.3-32.4-12.8-37.3h0,0Z"/>
</svg>